<svg width="51" height="44" viewBox="0 0 51 44" fill="none" xmlns="http://www.w3.org/2000/svg">
<path d="M38.64 21.8401H35.448C37.24 17.864 39.088 14.8401 40.824 12.8801H4.3124e-05V8.90405H40.824C39.032 6.94405 37.24 3.92005 35.448 4.76837e-05H38.64C42.56 4.59205 46.704 7.95205 50.96 10.136V11.704C46.704 13.888 42.56 17.248 38.64 21.8401ZM12.32 43.6801C8.40004 39.0881 4.25604 35.7281 4.3124e-05 33.5441V31.9761C4.25604 29.7921 8.40004 26.4321 12.32 21.8401H15.512C13.72 25.76 11.928 28.7841 10.136 30.7441H50.96V34.7201H10.136C11.872 36.6801 13.72 39.7041 15.512 43.6801H12.32Z" fill="#A855F7" fill-opacity="1"/>
</svg>
