<svg width="59" height="50" viewBox="0 0 59 50" fill="none" xmlns="http://www.w3.org/2000/svg">
<path d="M44.1598 24.96H40.5118C42.5598 20.416 44.6718 16.96 46.6558 14.72H-0.000159979V10.176H46.6558C44.6078 7.93599 42.5598 4.47999 40.5118 -1.52588e-05H44.1598C48.6398 5.24799 53.3758 9.08799 58.2398 11.584V13.376C53.3758 15.872 48.6398 19.712 44.1598 24.96ZM14.0798 49.92C9.59984 44.672 4.86384 40.832 -0.000159979 38.336V36.544C4.86384 34.048 9.59984 30.208 14.0798 24.96H17.7278C15.6798 29.44 13.6318 32.896 11.5838 35.136H58.2398V39.68H11.5838C13.5678 41.92 15.6798 45.376 17.7278 49.92H14.0798Z" fill="#A855F7" fill-opacity="0.11"/>
</svg>
