<svg width="37" height="41" viewBox="0 0 37 41" fill="none" xmlns="http://www.w3.org/2000/svg">
<path d="M18.5 0C8.28389 0 0 3.6695 0 8.2V32.8C0 37.3305 8.28389 41 18.5 41C28.7161 41 37 37.3305 37 32.8V8.2C37 3.6695 28.7161 0 18.5 0ZM18.5 4.1C27.3183 4.1 32.2928 6.9905 32.8683 8.2C32.2928 9.4095 27.3183 12.3 18.5 12.3C9.68167 12.3 4.70722 9.4095 4.13167 8.2C4.70722 6.9905 9.68167 4.1 18.5 4.1ZM32.8889 32.8C32.3133 34.0095 27.3183 36.9 18.5 36.9C9.68167 36.9 4.68667 34.0095 4.11111 32.8V25.6455C4.76889 26.0145 5.48833 26.3425 6.29 26.65C9.53778 27.921 13.8339 28.7 18.5 28.7C23.1661 28.7 27.4622 27.921 30.71 26.65C31.5117 26.3425 32.2311 26.0145 32.8889 25.6455V32.8ZM32.8889 20.5C32.3133 21.7095 27.3183 24.6 18.5 24.6C9.68167 24.6 4.68667 21.7095 4.11111 20.5V13.3455C4.76889 13.7145 5.48833 14.0425 6.29 14.35C9.53778 15.621 13.8339 16.4 18.5 16.4C23.1661 16.4 27.4622 15.621 30.71 14.35C31.5117 14.0425 32.2311 13.7145 32.8889 13.3455V20.5Z" fill="#A855F7" fill-opacity="1"/>
</svg>
