<svg width="53" height="48" viewBox="0 0 53 48" fill="none" xmlns="http://www.w3.org/2000/svg">
<path d="M18.65 47.05C16.7834 47.05 15.1334 46.6833 13.7 45.95C12.3 45.2167 11.2334 44.1833 10.5 42.85C9.76672 41.55 9.45005 39.9833 9.55005 38.15L10.05 30.55C10.15 29.1833 9.86672 28.15 9.20005 27.45C8.56672 26.75 7.48338 26.4 5.95005 26.4H4.90099e-05V20.65H5.95005C7.48338 20.65 8.56672 20.3 9.20005 19.6C9.86672 18.9 10.15 17.8833 10.05 16.55L9.55005 8.7C9.45005 6.9 9.76672 5.35 10.5 4.05C11.2334 2.75 12.3 1.75 13.7 1.05C15.1334 0.349998 16.7834 -2.14577e-06 18.65 -2.14577e-06H22.1001V5.75H19.5501C18.35 5.75 17.4 6.03333 16.7 6.6C16.0334 7.16666 15.7334 8.06666 15.8 9.3L16.3001 17.1C16.4334 19.0667 15.85 20.65 14.55 21.85C13.25 23.05 11.4334 23.65 9.10005 23.65V23.3C11.4 23.3 13.2 23.9167 14.5 25.15C15.8334 26.35 16.4334 27.95 16.3001 29.95L15.8 37.75C15.7667 38.85 16.0834 39.7167 16.7501 40.35C17.4501 40.95 18.3834 41.25 19.5501 41.25H22.1001V47.05H18.65ZM29.9805 47.05V41.25H32.5305C33.6972 41.25 34.6305 40.95 35.3305 40.35C36.0305 39.7167 36.3472 38.85 36.2805 37.75L35.7805 29.95C35.6472 27.95 36.2305 26.35 37.5305 25.15C38.8639 23.9167 40.6805 23.3 42.9805 23.3V23.65C40.6805 23.65 38.8639 23.05 37.5305 21.85C36.2305 20.65 35.6472 19.0667 35.7805 17.1L36.2805 9.3C36.3472 8.06666 36.0305 7.16666 35.3305 6.6C34.6639 6.03333 33.7305 5.75 32.5305 5.75H29.9805V-2.14577e-06H33.4305C35.2972 -2.14577e-06 36.9305 0.349998 38.3305 1.05C39.7639 1.75 40.8472 2.75 41.5805 4.05C42.3139 5.35 42.6305 6.9 42.5305 8.7L42.0305 16.55C41.9305 17.8833 42.2139 18.9 42.8805 19.6C43.5472 20.3 44.6305 20.65 46.1305 20.65H52.0805V26.4H46.1305C44.6305 26.4 43.5472 26.75 42.8805 27.45C42.2139 28.15 41.9305 29.1833 42.0305 30.55L42.5305 38.15C42.6305 39.9833 42.3139 41.55 41.5805 42.85C40.8472 44.1833 39.7639 45.2167 38.3305 45.95C36.9305 46.6833 35.2972 47.05 33.4305 47.05H29.9805Z" fill="#C084FC" fill-opacity="0.22"/>
</svg>
