<svg preserveAspectRatio="none" width="100%" height="100%" overflow="visible" style="display: block;" viewBox="0 0 51 57" fill="none" xmlns="http://www.w3.org/2000/svg">
<path id="Vector" d="M25.5 0C11.4183 0 0 5.1015 0 11.4V45.6C0 51.8985 11.4183 57 25.5 57C39.5817 57 51 51.8985 51 45.6V11.4C51 5.1015 39.5817 0 25.5 0ZM25.5 5.7C37.655 5.7 44.5117 9.7185 45.305 11.4C44.5117 13.0815 37.655 17.1 25.5 17.1C13.345 17.1 6.48833 13.0815 5.695 11.4C6.48833 9.7185 13.345 5.7 25.5 5.7ZM45.3333 45.6C44.54 47.2815 37.655 51.3 25.5 51.3C13.345 51.3 6.46 47.2815 5.66667 45.6V35.6535C6.57333 36.1665 7.565 36.6225 8.67 37.05C13.1467 38.817 19.0683 39.9 25.5 39.9C31.9317 39.9 37.8533 38.817 42.33 37.05C43.435 36.6225 44.4267 36.1665 45.3333 35.6535V45.6ZM45.3333 28.5C44.54 30.1815 37.655 34.2 25.5 34.2C13.345 34.2 6.46 30.1815 5.66667 28.5V18.5535C6.57333 19.0665 7.565 19.5225 8.67 19.95C13.1467 21.717 19.0683 22.8 25.5 22.8C31.9317 22.8 37.8533 21.717 42.33 19.95C43.435 19.5225 44.4267 19.0665 45.3333 18.5535V28.5Z" fill="var(--fill-0, #A855F7)" fill-opacity="0.11"/>
</svg>
