<svg width="40" height="40" viewBox="0 0 40 40" fill="none" xmlns="http://www.w3.org/2000/svg">
<mask id="path-1-inside-1_310_501" fill="white">
<path d="M0 9C0 4.02944 4.02944 0 9 0H31C35.9706 0 40 4.02944 40 9V31C40 35.9706 35.9706 40 31 40H9C4.02944 40 0 35.9706 0 31V9Z"/>
</mask>
<path d="M0 9C0 4.02944 4.02944 0 9 0H31C35.9706 0 40 4.02944 40 9V31C40 35.9706 35.9706 40 31 40H9C4.02944 40 0 35.9706 0 31V9Z" fill="#FBBF24" fill-opacity="0.08"/>
<path d="M9 0V1H31V0V-1H9V0ZM40 9H39V31H40H41V9H40ZM31 40V39H9V40V41H31V40ZM0 31H1V9H0H-1V31H0ZM9 40V39C4.58172 39 1 35.4183 1 31H0H-1C-1 36.5228 3.47715 41 9 41V40ZM40 31H39C39 35.4183 35.4183 39 31 39V40V41C36.5228 41 41 36.5228 41 31H40ZM31 0V1C35.4183 1 39 4.58172 39 9H40H41C41 3.47715 36.5228 -1 31 -1V0ZM9 0V-1C3.47715 -1 -1 3.47715 -1 9H0H1C1 4.58172 4.58172 1 9 1V0Z" fill="#FBBF24" fill-opacity="0.34" mask="url(#path-1-inside-1_310_501)"/>
<path d="M15.8334 13.3333H24.1667V16.6666C24.1667 17.7717 23.7277 18.8315 22.9463 19.6129C22.1649 20.3943 21.1051 20.8333 20 20.8333C18.895 20.8333 17.8352 20.3943 17.0538 19.6129C16.2724 18.8315 15.8334 17.7717 15.8334 16.6666V13.3333Z" stroke="#FBBF24" stroke-width="1.25" stroke-linecap="round" stroke-linejoin="round"/>
<path d="M15.8334 14.1667H13.3334V15.8334C13.3334 16.4965 13.5968 17.1323 14.0656 17.6012C14.5344 18.07 15.1703 18.3334 15.8334 18.3334M24.1667 14.1667H26.6667V15.8334C26.6667 16.4965 26.4033 17.1323 25.9345 17.6012C25.4656 18.07 24.8297 18.3334 24.1667 18.3334" stroke="#FBBF24" stroke-width="1.25" stroke-linecap="round" stroke-linejoin="round"/>
<path d="M17.9166 21.25L17.5 24.1667H22.5L22.0833 21.25M16.6666 26.6667H23.3333" stroke="#FBBF24" stroke-width="1.25" stroke-linecap="round" stroke-linejoin="round"/>
</svg>
