<svg preserveAspectRatio="none" width="100%" height="100%" overflow="visible" style="display: block;" viewBox="0 0 17 11" fill="none" xmlns="http://www.w3.org/2000/svg">
<g id="Vector">
<path d="M1.29936 6.98239C2.82234 8.45658 5.47838 10.5 8.50018 10.5C11.522 10.5 14.1775 8.45658 15.7005 6.98239C16.1021 6.5936 16.3037 6.39853 16.4316 6.0168C16.5228 5.74444 16.5228 5.25565 16.4316 4.98328C16.3037 4.60154 16.1022 4.40645 15.7005 4.01761C14.1775 2.54342 11.522 0.5 8.50018 0.5C5.47838 0.5 2.82234 2.54342 1.29936 4.01761C0.897388 4.40671 0.696384 4.6014 0.568439 4.98328C0.477187 5.25564 0.477187 5.74444 0.568439 6.0168C0.696384 6.39868 0.897387 6.59329 1.29936 6.98239Z" stroke="var(--stroke-0, #E7E5EF)" stroke-linecap="round" stroke-linejoin="round"/>
<path d="M6.78827 5.50003C6.78827 6.42052 7.55465 7.16671 8.50002 7.16671C9.4454 7.16671 10.2118 6.42052 10.2118 5.50003C10.2118 4.57955 9.4454 3.83336 8.50002 3.83336C7.55465 3.83336 6.78827 4.57955 6.78827 5.50003Z" stroke="var(--stroke-0, #E7E5EF)" stroke-linecap="round" stroke-linejoin="round"/>
</g>
</svg>
