<svg preserveAspectRatio="none" width="100%" height="100%" overflow="visible" style="display: block;" viewBox="0 0 17 15" fill="none" xmlns="http://www.w3.org/2000/svg">
<path id="Vector" d="M1.65291 0.5L15.3468 14.5M12.3513 11.6614C11.1936 12.2989 9.88518 12.7499 8.49986 12.7499C5.47808 12.7499 2.82232 10.6044 1.29936 9.05646C0.897355 8.64787 0.696383 8.4436 0.568443 8.0426C0.4772 7.75662 0.477172 7.24325 0.568443 6.95727C0.696423 6.55628 0.897811 6.35152 1.30061 5.94221C2.06823 5.16218 3.12339 4.23065 4.36798 3.49841M14.9189 9.80427C15.2039 9.54797 15.465 9.2958 15.6993 9.05774L15.7017 9.05507C16.1028 8.64749 16.3039 8.44315 16.4316 8.04303C16.5229 7.75706 16.5227 7.24348 16.4315 6.9575C16.3036 6.55663 16.1024 6.35178 15.7006 5.94347C14.1777 4.39557 11.5216 2.25 8.49986 2.25C8.21101 2.25 7.92549 2.26961 7.64399 2.30642M9.6321 8.8125C9.33035 9.08478 8.93398 9.25 8.49986 9.25C7.55449 9.25 6.78812 8.4665 6.78812 7.5C6.78812 7.02793 6.97095 6.59969 7.26816 6.28491" stroke="var(--stroke-0, #E7E5EF)" stroke-linecap="round" stroke-linejoin="round"/>
</svg>
