<svg preserveAspectRatio="none" width="100%" height="100%" overflow="visible" style="display: block;" viewBox="0 0 16 12" fill="none" xmlns="http://www.w3.org/2000/svg">
<path id="Vector" d="M1.33333 1.28571L6.42303 4.90964L6.42473 4.91097C6.98987 5.30172 7.27261 5.49722 7.5823 5.57274C7.85602 5.63949 8.14376 5.63949 8.41748 5.57274C8.72744 5.49715 9.011 5.30109 9.57715 4.90964C9.57715 4.90964 12.8417 2.54752 14.6667 1.28571M0.5 8.98587V3.01444C0.5 2.13436 0.5 1.69399 0.681656 1.35784C0.841445 1.06216 1.09623 0.821934 1.40983 0.671276C1.76635 0.5 2.23341 0.5 3.16683 0.5H12.8335C13.7669 0.5 14.233 0.5 14.5895 0.671276C14.9031 0.821934 15.1587 1.06216 15.3185 1.35784C15.5 1.69366 15.5 2.1335 15.5 3.01186V8.98853C15.5 9.86689 15.5 10.3061 15.3185 10.6419C15.1587 10.9376 14.9031 11.1782 14.5895 11.3289C14.2333 11.5 13.7675 11.5 12.8359 11.5H3.16409C2.2325 11.5 1.766 11.5 1.40983 11.3289C1.09623 11.1782 0.841445 10.9376 0.681656 10.6419C0.5 10.3058 0.5 9.86595 0.5 8.98587Z" stroke="var(--stroke-0, #E7E5EF)" stroke-linecap="round" stroke-linejoin="round"/>
</svg>
